{
    "asset" : {
        "generator" : "Khronos Blender glTF 2.0 I/O",
        "version" : "2.0"
    },
    "scene" : 0,
    "scenes" : [
        {
            "name" : "Scene",
            "nodes" : [
                7
            ]
        }
    ],
    "nodes" : [
        {
            "name" : "Circle_decals_0"
        },
        {
            "mesh" : 0,
            "name" : "Circle_panels_0",
            "rotation" : [
                -0.0003966394579038024,
                0.0011898691300302744,
                0.16122210025787354,
                0.9869173765182495
            ]
        },
        {
            "mesh" : 1,
            "name" : "Circle_solarpanels_0",
            "rotation" : [
                -0.0003966394579038024,
                0.0011898691300302744,
                0.16122210025787354,
                0.9869173765182495
            ]
        },
        {
            "children" : [
                0,
                1,
                2
            ],
            "name" : "Circle",
            "rotation" : [
                -0.19750720262527466,
                -0.03205224499106407,
                -0.15694881975650787,
                0.9671249389648438
            ],
            "scale" : [
                99.9999771118164,
                99.99999237060547,
                100
            ]
        },
        {
            "children" : [
                3
            ],
            "name" : "RootNode"
        },
        {
            "children" : [
                4
            ],
            "name" : "9e445456817142dea33796d5777c743e.fbx",
            "rotation" : [
                0.7071068286895752,
                0,
                0,
                0.7071067094802856
            ]
        },
        {
            "children" : [
                5
            ],
            "name" : "RootNode (model correction matrix)"
        },
        {
            "children" : [
                6
            ],
            "name" : "RootNode (gltf orientation matrix)",
            "rotation" : [
                0.2039005309343338,
                0,
                0,
                0.9789916276931763
            ]
        }
    ],
    "materials" : [
        {
            "emissiveFactor" : [
                0,
                0,
                0
            ],
            "name" : "panels",
            "normalTexture" : {
                "index" : 0,
                "texCoord" : 0
            },
            "pbrMetallicRoughness" : {
                "baseColorTexture" : {
                    "index" : 1,
                    "texCoord" : 0
                },
                "metallicFactor" : 0,
                "roughnessFactor" : 0.557966411113739
            }
        },
        {
            "emissiveFactor" : [
                0,
                0,
                0
            ],
            "name" : "solarpanels",
            "normalTexture" : {
                "index" : 2,
                "texCoord" : 0
            },
            "pbrMetallicRoughness" : {
                "baseColorTexture" : {
                    "index" : 3,
                    "texCoord" : 0
                },
                "metallicRoughnessTexture" : {
                    "index" : 4,
                    "texCoord" : 0
                }
            }
        }
    ],
    "meshes" : [
        {
            "name" : "Circle_panels_0",
            "primitives" : [
                {
                    "attributes" : {
                        "POSITION" : 0,
                        "NORMAL" : 1,
                        "TEXCOORD_0" : 2
                    },
                    "indices" : 3,
                    "material" : 0
                }
            ]
        },
        {
            "name" : "Circle_solarpanels_0",
            "primitives" : [
                {
                    "attributes" : {
                        "POSITION" : 4,
                        "NORMAL" : 5,
                        "TEXCOORD_0" : 6
                    },
                    "indices" : 7,
                    "material" : 1
                }
            ]
        }
    ],
    "textures" : [
        {
            "source" : 0
        },
        {
            "source" : 1
        },
        {
            "source" : 2
        },
        {
            "source" : 3
        },
        {
            "source" : 4
        }
    ],
    "images" : [
        {
            "mimeType" : "image/png",
            "name" : "panels_normal.png",
            "uri" : "panels_normal.png"
        },
        {
            "mimeType" : "image/png",
            "name" : "panels_baseColor.png",
            "uri" : "panels_baseColor.png"
        },
        {
            "mimeType" : "image/png",
            "name" : "solarpanels_normal.png",
            "uri" : "solarpanels_normal.png"
        },
        {
            "mimeType" : "image/png",
            "name" : "solarpanels_baseColor.png",
            "uri" : "solarpanels_baseColor.png"
        },
        {
            "mimeType" : "image/png",
            "name" : "solarpanels_metallicRoughness.png",
            "uri" : "solarpanels_metallicRoughness.png"
        }
    ],
    "accessors" : [
        {
            "bufferView" : 0,
            "componentType" : 5126,
            "count" : 876,
            "max" : [
                11.502342224121094,
                1.297364592552185,
                0
            ],
            "min" : [
                -11.502342224121094,
                -1.297364354133606,
                -5.90897274017334
            ],
            "type" : "VEC3"
        },
        {
            "bufferView" : 1,
            "componentType" : 5126,
            "count" : 876,
            "type" : "VEC3"
        },
        {
            "bufferView" : 2,
            "componentType" : 5126,
            "count" : 876,
            "type" : "VEC2"
        },
        {
            "bufferView" : 3,
            "componentType" : 5123,
            "count" : 1314,
            "type" : "SCALAR"
        },
        {
            "bufferView" : 4,
            "componentType" : 5126,
            "count" : 24,
            "max" : [
                11.435253143310547,
                1.1467602252960205,
                -3.5609469413757324
            ],
            "min" : [
                -11.435253143310547,
                -1.1191773414611816,
                -5.8268842697143555
            ],
            "type" : "VEC3"
        },
        {
            "bufferView" : 5,
            "componentType" : 5126,
            "count" : 24,
            "type" : "VEC3"
        },
        {
            "bufferView" : 6,
            "componentType" : 5126,
            "count" : 24,
            "type" : "VEC2"
        },
        {
            "bufferView" : 7,
            "componentType" : 5123,
            "count" : 24,
            "type" : "SCALAR"
        }
    ],
    "bufferViews" : [
        {
            "buffer" : 0,
            "byteLength" : 10512,
            "byteOffset" : 0
        },
        {
            "buffer" : 0,
            "byteLength" : 10512,
            "byteOffset" : 10512
        },
        {
            "buffer" : 0,
            "byteLength" : 7008,
            "byteOffset" : 21024
        },
        {
            "buffer" : 0,
            "byteLength" : 2628,
            "byteOffset" : 28032
        },
        {
            "buffer" : 0,
            "byteLength" : 288,
            "byteOffset" : 30660
        },
        {
            "buffer" : 0,
            "byteLength" : 288,
            "byteOffset" : 30948
        },
        {
            "buffer" : 0,
            "byteLength" : 192,
            "byteOffset" : 31236
        },
        {
            "buffer" : 0,
            "byteLength" : 48,
            "byteOffset" : 31428
        }
    ],
    "buffers" : [
        {
            "byteLength" : 31476,
            "uri" : "sat3-1.bin"
        }
    ]
}
