{
  "accessors": [
    {
      "bufferView": 2,
      "componentType": 5126,
      "count": 4014,
      "max": [
        2.0020599365234375,
        2.0020599365234375,
        8
      ],
      "min": [
        -2.0020599365234375,
        -2.0020599365234375,
        -6
      ],
      "type": "VEC3"
    },
    {
      "bufferView": 2,
      "byteOffset": 48168,
      "componentType": 5126,
      "count": 4014,
      "max": [
        1,
        1,
        1
      ],
      "min": [
        -1,
        -1,
        -1
      ],
      "type": "VEC3"
    },
    {
      "bufferView": 3,
      "componentType": 5126,
      "count": 4014,
      "max": [
        1,
        1,
        0.94259363412857056,
        1
      ],
      "min": [
        -1,
        -1,
        -0.99985605478286743,
        -1
      ],
      "type": "VEC4"
    },
    {
      "bufferView": 1,
      "componentType": 5126,
      "count": 4014,
      "max": [
        0.99787002801895142,
        0.99625998735427856
      ],
      "min": [
        0.00067999999737367034,
        0.001829999964684248
      ],
      "type": "VEC2"
    },
    {
      "bufferView": 0,
      "componentType": 5125,
      "count": 15744,
      "max": [
        4013
      ],
      "min": [
        0
      ],
      "type": "SCALAR"
    },
    {
      "bufferView": 2,
      "byteOffset": 96336,
      "componentType": 5126,
      "count": 3500,
      "max": [
        1.9663399457931519,
        1.9663399457931519,
        -5.3921399116516113
      ],
      "min": [
        -1.9663399457931519,
        -1.9663399457931519,
        -10.221030235290527
      ],
      "type": "VEC3"
    },
    {
      "bufferView": 2,
      "byteOffset": 138336,
      "componentType": 5126,
      "count": 3500,
      "max": [
        1,
        1,
        1
      ],
      "min": [
        -1,
        -1,
        -1
      ],
      "type": "VEC3"
    },
    {
      "bufferView": 3,
      "byteOffset": 64224,
      "componentType": 5126,
      "count": 3500,
      "max": [
        1,
        1,
        1,
        1
      ],
      "min": [
        -1,
        -1,
        -0.81334346532821655,
        -1
      ],
      "type": "VEC4"
    },
    {
      "bufferView": 1,
      "byteOffset": 32112,
      "componentType": 5126,
      "count": 3500,
      "max": [
        0.99940997362136841,
        0.99573999643325806
      ],
      "min": [
        0.001129999989643693,
        0.00046000001020729542
      ],
      "type": "VEC2"
    },
    {
      "bufferView": 0,
      "byteOffset": 62976,
      "componentType": 5125,
      "count": 12954,
      "max": [
        3499
      ],
      "min": [
        0
      ],
      "type": "SCALAR"
    },
    {
      "bufferView": 2,
      "byteOffset": 180336,
      "componentType": 5126,
      "count": 3778,
      "max": [
        3.4996700286865234,
        3.3094799518585205,
        0.088239997625350952
      ],
      "min": [
        -3.4113099575042725,
        -3.4883599281311035,
        -7.9093999862670898
      ],
      "type": "VEC3"
    },
    {
      "bufferView": 2,
      "byteOffset": 225672,
      "componentType": 5126,
      "count": 3778,
      "max": [
        0.9987645149230957,
        0.99916797876358032,
        1
      ],
      "min": [
        -0.99916142225265503,
        -0.99993407726287842,
        -1
      ],
      "type": "VEC3"
    },
    {
      "bufferView": 3,
      "byteOffset": 120224,
      "componentType": 5126,
      "count": 3778,
      "max": [
        0.99999499320983887,
        0.99998617172241211,
        0.00038148759631440043,
        1
      ],
      "min": [
        -0.99999499320983887,
        -0.99999070167541504,
        -0.0042808186262845993,
        -1
      ],
      "type": "VEC4"
    },
    {
      "bufferView": 1,
      "byteOffset": 60112,
      "componentType": 5126,
      "count": 3778,
      "max": [
        -0.35793998837471008,
        1.0110299587249756
      ],
      "min": [
        -1.2365800142288208,
        0.011029999703168869
      ],
      "type": "VEC2"
    },
    {
      "bufferView": 0,
      "byteOffset": 114792,
      "componentType": 5125,
      "count": 5652,
      "max": [
        3777
      ],
      "min": [
        0
      ],
      "type": "SCALAR"
    }
  ],
  "asset": {
    "extras": {
      "author": "Jon Ross (https://sketchfab.com/zlsa)",
      "license": "CC-BY-4.0 (http://creativecommons.org/licenses/by/4.0/)",
      "source": "https://sketchfab.com/models/ca5b80c933c047a6910daf473c44306b",
      "title": "Rocket engine and art style experiment"
    },
    "generator": "Sketchfab-3.46.1",
    "version": "2.0"
  },
  "bufferViews": [
    {
      "buffer": 0,
      "byteLength": 137400,
      "byteOffset": 0,
      "name": "floatBufferViews",
      "target": 34963
    },
    {
      "buffer": 0,
      "byteLength": 90336,
      "byteOffset": 137400,
      "byteStride": 8,
      "name": "floatBufferViews",
      "target": 34962
    },
    {
      "buffer": 0,
      "byteLength": 271008,
      "byteOffset": 227736,
      "byteStride": 12,
      "name": "floatBufferViews",
      "target": 34962
    },
    {
      "buffer": 0,
      "byteLength": 180672,
      "byteOffset": 498744,
      "byteStride": 16,
      "name": "floatBufferViews",
      "target": 34962
    }
  ],
  "buffers": [
    {
      "byteLength": 679416,
      "uri": "scene.bin"
    }
  ],
  "images": [
    {
      "uri": "textures/tank_baseColor.png"
    },
    {
      "uri": "textures/tank_metallicRoughness.png"
    },
    {
      "uri": "textures/tank_normal.png"
    },
    {
      "uri": "textures/engine_lighting_baseColor.png"
    },
    {
      "uri": "textures/engine_lighting_emissive.png"
    },
    {
      "uri": "textures/engine_baseColor.png"
    },
    {
      "uri": "textures/engine_metallicRoughness.png"
    },
    {
      "uri": "textures/engine_normal.png"
    }
  ],
  "materials": [
    {
      "alphaMode": "BLEND",
      "doubleSided": true,
      "emissiveFactor": [
        1,
        1,
        1
      ],
      "emissiveTexture": {
        "index": 4,
        "texCoord": 0
      },
      "name": "engine_lighting",
      "pbrMetallicRoughness": {
        "baseColorFactor": [
          0,
          0,
          0,
          1
        ],
        "baseColorTexture": {
          "index": 3,
          "texCoord": 0
        },
        "metallicFactor": 1,
        "roughnessFactor": 1
      }
    },
    {
      "doubleSided": true,
      "name": "tank",
      "normalTexture": {
        "index": 2,
        "scale": 1,
        "texCoord": 0
      },
      "occlusionTexture": {
        "index": 1,
        "strength": 1,
        "texCoord": 0
      },
      "pbrMetallicRoughness": {
        "baseColorFactor": [
          1,
          1,
          1,
          1
        ],
        "baseColorTexture": {
          "index": 0,
          "texCoord": 0
        },
        "metallicFactor": 1,
        "metallicRoughnessTexture": {
          "index": 1,
          "texCoord": 0
        },
        "roughnessFactor": 1
      }
    },
    {
      "doubleSided": true,
      "name": "engine",
      "normalTexture": {
        "index": 7,
        "scale": 1,
        "texCoord": 0
      },
      "occlusionTexture": {
        "index": 6,
        "strength": 1,
        "texCoord": 0
      },
      "pbrMetallicRoughness": {
        "baseColorFactor": [
          1,
          1,
          1,
          1
        ],
        "baseColorTexture": {
          "index": 5,
          "texCoord": 0
        },
        "metallicFactor": 1,
        "metallicRoughnessTexture": {
          "index": 6,
          "texCoord": 0
        },
        "roughnessFactor": 1
      }
    }
  ],
  "meshes": [
    {
      "name": "tank long flat section.001_0",
      "primitives": [
        {
          "attributes": {
            "NORMAL": 1,
            "POSITION": 0,
            "TANGENT": 2,
            "TEXCOORD_0": 3
          },
          "indices": 4,
          "material": 1,
          "mode": 4
        }
      ]
    },
    {
      "name": "tank long flat section.001_1",
      "primitives": [
        {
          "attributes": {
            "NORMAL": 6,
            "POSITION": 5,
            "TANGENT": 7,
            "TEXCOORD_0": 8
          },
          "indices": 9,
          "material": 2,
          "mode": 4
        }
      ]
    },
    {
      "name": "engine flame effect.001_0",
      "primitives": [
        {
          "attributes": {
            "NORMAL": 11,
            "POSITION": 10,
            "TANGENT": 12,
            "TEXCOORD_0": 13
          },
          "indices": 14,
          "material": 0,
          "mode": 4
        }
      ]
    }
  ],
  "nodes": [
    {
      "children": [
        1
      ],
      "name": "RootNode (gltf orientation matrix)",
      "rotation": [
        -0.70710678118654746,
        -0,
        -0,
        0.70710678118654757
      ]
    },
    {
      "children": [
        2
      ],
      "matrix": [
        0.27137678861618042,
        0.94989967346191406,
        0.15506517887115479,
        0,
        -0.21877659857273102,
        0.21777370572090149,
        -0.95116317272186279,
        0,
        -0.93727874755859375,
        0.22419898211956024,
        0.26691454648971558,
        0,
        -0.80914020538330078,
        1.0548691749572754,
        0.17220099270343781,
        1
      ],
      "name": "RootNode (model correction matrix)"
    },
    {
      "children": [
        3,
        6
      ],
      "name": "Root"
    },
    {
      "children": [
        4,
        5
      ],
      "matrix": [
        0,
        0,
        -1,
        0,
        -0,
        1,
        -0,
        0,
        1,
        0,
        0,
        0,
        0,
        0,
        0,
        1
      ],
      "name": "tank long flat section.001"
    },
    {
      "mesh": 0,
      "name": "tank long flat section.001_0"
    },
    {
      "mesh": 1,
      "name": "tank long flat section.001_1"
    },
    {
      "children": [
        7
      ],
      "matrix": [
        0,
        0,
        -1,
        0,
        -0,
        1,
        -0,
        0,
        1,
        0,
        0,
        0,
        -7.5,
        -0,
        -0,
        1
      ],
      "name": "engine flame effect.001"
    },
    {
      "mesh": 2,
      "name": "engine flame effect.001_0"
    }
  ],
  "samplers": [
    {
      "magFilter": 9729,
      "minFilter": 9987,
      "wrapS": 10497,
      "wrapT": 10497
    }
  ],
  "scene": 0,
  "scenes": [
    {
      "name": "OSG_Scene",
      "nodes": [
        0
      ]
    }
  ],
  "textures": [
    {
      "sampler": 0,
      "source": 0
    },
    {
      "sampler": 0,
      "source": 1
    },
    {
      "sampler": 0,
      "source": 2
    },
    {
      "sampler": 0,
      "source": 3
    },
    {
      "sampler": 0,
      "source": 4
    },
    {
      "sampler": 0,
      "source": 5
    },
    {
      "sampler": 0,
      "source": 6
    },
    {
      "sampler": 0,
      "source": 7
    }
  ]
}

