{
    "asset" : {
        "generator" : "Khronos Blender glTF 2.0 I/O",
        "version" : "2.0"
    },
    "scene" : 0,
    "scenes" : [
        {
            "name" : "Scene",
            "nodes" : [
                0,
                1,
                2,
                3,
                4,
                5,
                6
            ]
        }
    ],
    "nodes" : [
        {
            "mesh" : 0,
            "name" : "Karkas",
            "rotation" : [
                0.7071068286895752,
                0,
                0,
                0.7071067094802856
            ]
        },
        {
            "mesh" : 1,
            "name" : "Door",
            "rotation" : [
                0.7071068286895752,
                0,
                0,
                0.7071067094802856
            ]
        },
        {
            "mesh" : 2,
            "name" : "Petlya_1",
            "rotation" : [
                0.7071068286895752,
                0,
                0,
                0.7071067094802856
            ]
        },
        {
            "mesh" : 3,
            "name" : "Petlya_1.000",
            "rotation" : [
                0.7071068286895752,
                0,
                0,
                0.7071067094802856
            ]
        },
        {
            "mesh" : 4,
            "name" : "Petlya_2",
            "rotation" : [
                0.7071068286895752,
                0,
                0,
                0.7071067094802856
            ]
        },
        {
            "mesh" : 5,
            "name" : "Petlya_2.000",
            "rotation" : [
                0.7071068286895752,
                0,
                0,
                0.7071067094802856
            ]
        },
        {
            "mesh" : 6,
            "name" : "zamok_2",
            "rotation" : [
                0.7071068286895752,
                0,
                0,
                0.7071067094802856
            ]
        }
    ],
    "materials" : [
        {
            "name" : "Door",
            "pbrMetallicRoughness" : {
                "baseColorFactor" : [
                    0.800000011920929,
                    0.800000011920929,
                    0.800000011920929,
                    1
                ],
                "metallicFactor" : 0,
                "roughnessFactor" : 0.5
            }
        },
        {
            "name" : "Petlya",
            "pbrMetallicRoughness" : {
                "baseColorFactor" : [
                    0.800000011920929,
                    0.800000011920929,
                    0.800000011920929,
                    1
                ],
                "metallicFactor" : 0,
                "roughnessFactor" : 0.5
            }
        }
    ],
    "meshes" : [
        {
            "name" : "Karkas",
            "primitives" : [
                {
                    "attributes" : {
                        "POSITION" : 0,
                        "NORMAL" : 1,
                        "TEXCOORD_0" : 2
                    },
                    "indices" : 3,
                    "material" : 0
                }
            ]
        },
        {
            "name" : "Door",
            "primitives" : [
                {
                    "attributes" : {
                        "POSITION" : 4,
                        "NORMAL" : 5,
                        "TEXCOORD_0" : 6
                    },
                    "indices" : 7,
                    "material" : 0
                }
            ]
        },
        {
            "name" : "Petlya_1",
            "primitives" : [
                {
                    "attributes" : {
                        "POSITION" : 8,
                        "NORMAL" : 9,
                        "TEXCOORD_0" : 10
                    },
                    "indices" : 11,
                    "material" : 1
                }
            ]
        },
        {
            "name" : "Petlya_1.000",
            "primitives" : [
                {
                    "attributes" : {
                        "POSITION" : 12,
                        "NORMAL" : 13,
                        "TEXCOORD_0" : 14
                    },
                    "indices" : 11,
                    "material" : 1
                }
            ]
        },
        {
            "name" : "Petlya_2",
            "primitives" : [
                {
                    "attributes" : {
                        "POSITION" : 15,
                        "NORMAL" : 16,
                        "TEXCOORD_0" : 17
                    },
                    "indices" : 11,
                    "material" : 1
                }
            ]
        },
        {
            "name" : "Petlya_2.000",
            "primitives" : [
                {
                    "attributes" : {
                        "POSITION" : 18,
                        "NORMAL" : 19,
                        "TEXCOORD_0" : 20
                    },
                    "indices" : 11,
                    "material" : 1
                }
            ]
        },
        {
            "name" : "zamok_2",
            "primitives" : [
                {
                    "attributes" : {
                        "POSITION" : 21,
                        "NORMAL" : 22,
                        "TEXCOORD_0" : 23
                    },
                    "indices" : 24,
                    "material" : 0
                }
            ]
        }
    ],
    "accessors" : [
        {
            "bufferView" : 0,
            "componentType" : 5126,
            "count" : 129,
            "max" : [
                7.255199909210205,
                101.8582992553711,
                197.27960205078125
            ],
            "min" : [
                -6.985599994659424,
                -101.88610076904297,
                -197.10040283203125
            ],
            "type" : "VEC3"
        },
        {
            "bufferView" : 1,
            "componentType" : 5126,
            "count" : 129,
            "type" : "VEC3"
        },
        {
            "bufferView" : 2,
            "componentType" : 5126,
            "count" : 129,
            "type" : "VEC2"
        },
        {
            "bufferView" : 3,
            "componentType" : 5123,
            "count" : 384,
            "type" : "SCALAR"
        },
        {
            "bufferView" : 4,
            "componentType" : 5126,
            "count" : 646,
            "max" : [
                14.007200241088867,
                91.93710327148438,
                183.52980041503906
            ],
            "min" : [
                -6.679500102996826,
                -91.73560333251953,
                -183.31190490722656
            ],
            "type" : "VEC3"
        },
        {
            "bufferView" : 5,
            "componentType" : 5126,
            "count" : 646,
            "type" : "VEC3"
        },
        {
            "bufferView" : 6,
            "componentType" : 5126,
            "count" : 646,
            "type" : "VEC2"
        },
        {
            "bufferView" : 7,
            "componentType" : 5123,
            "count" : 2250,
            "type" : "SCALAR"
        },
        {
            "bufferView" : 8,
            "componentType" : 5126,
            "count" : 80,
            "max" : [
                8.992500305175781,
                99.7614974975586,
                -122.78780364990234
            ],
            "min" : [
                6.893599987030029,
                91.38040161132812,
                -140.60809326171875
            ],
            "type" : "VEC3"
        },
        {
            "bufferView" : 9,
            "componentType" : 5126,
            "count" : 80,
            "type" : "VEC3"
        },
        {
            "bufferView" : 10,
            "componentType" : 5126,
            "count" : 80,
            "type" : "VEC2"
        },
        {
            "bufferView" : 11,
            "componentType" : 5123,
            "count" : 168,
            "type" : "SCALAR"
        },
        {
            "bufferView" : 12,
            "componentType" : 5126,
            "count" : 80,
            "max" : [
                8.992500305175781,
                99.7614974975586,
                137.54119873046875
            ],
            "min" : [
                6.893599987030029,
                91.38040161132812,
                119.72090148925781
            ],
            "type" : "VEC3"
        },
        {
            "bufferView" : 13,
            "componentType" : 5126,
            "count" : 80,
            "type" : "VEC3"
        },
        {
            "bufferView" : 14,
            "componentType" : 5126,
            "count" : 80,
            "type" : "VEC2"
        },
        {
            "bufferView" : 15,
            "componentType" : 5126,
            "count" : 80,
            "max" : [
                8.992500305175781,
                93.41100311279297,
                137.8314971923828
            ],
            "min" : [
                5.926000118255615,
                84.6989974975586,
                120.02989959716797
            ],
            "type" : "VEC3"
        },
        {
            "bufferView" : 16,
            "componentType" : 5126,
            "count" : 80,
            "type" : "VEC3"
        },
        {
            "bufferView" : 17,
            "componentType" : 5126,
            "count" : 80,
            "type" : "VEC2"
        },
        {
            "bufferView" : 18,
            "componentType" : 5126,
            "count" : 80,
            "max" : [
                8.992500305175781,
                93.41100311279297,
                -122.49749755859375
            ],
            "min" : [
                5.926000118255615,
                84.6989974975586,
                -140.29910278320312
            ],
            "type" : "VEC3"
        },
        {
            "bufferView" : 19,
            "componentType" : 5126,
            "count" : 80,
            "type" : "VEC3"
        },
        {
            "bufferView" : 20,
            "componentType" : 5126,
            "count" : 80,
            "type" : "VEC2"
        },
        {
            "bufferView" : 21,
            "componentType" : 5126,
            "count" : 186,
            "max" : [
                14.007200241088867,
                -92.83159637451172,
                -37.82630157470703
            ],
            "min" : [
                6.386099815368652,
                -101.50530242919922,
                -46.66109848022461
            ],
            "type" : "VEC3"
        },
        {
            "bufferView" : 22,
            "componentType" : 5126,
            "count" : 186,
            "type" : "VEC3"
        },
        {
            "bufferView" : 23,
            "componentType" : 5126,
            "count" : 186,
            "type" : "VEC2"
        },
        {
            "bufferView" : 24,
            "componentType" : 5123,
            "count" : 810,
            "type" : "SCALAR"
        }
    ],
    "bufferViews" : [
        {
            "buffer" : 0,
            "byteLength" : 1548,
            "byteOffset" : 0
        },
        {
            "buffer" : 0,
            "byteLength" : 1548,
            "byteOffset" : 1548
        },
        {
            "buffer" : 0,
            "byteLength" : 1032,
            "byteOffset" : 3096
        },
        {
            "buffer" : 0,
            "byteLength" : 768,
            "byteOffset" : 4128
        },
        {
            "buffer" : 0,
            "byteLength" : 7752,
            "byteOffset" : 4896
        },
        {
            "buffer" : 0,
            "byteLength" : 7752,
            "byteOffset" : 12648
        },
        {
            "buffer" : 0,
            "byteLength" : 5168,
            "byteOffset" : 20400
        },
        {
            "buffer" : 0,
            "byteLength" : 4500,
            "byteOffset" : 25568
        },
        {
            "buffer" : 0,
            "byteLength" : 960,
            "byteOffset" : 30068
        },
        {
            "buffer" : 0,
            "byteLength" : 960,
            "byteOffset" : 31028
        },
        {
            "buffer" : 0,
            "byteLength" : 640,
            "byteOffset" : 31988
        },
        {
            "buffer" : 0,
            "byteLength" : 336,
            "byteOffset" : 32628
        },
        {
            "buffer" : 0,
            "byteLength" : 960,
            "byteOffset" : 32964
        },
        {
            "buffer" : 0,
            "byteLength" : 960,
            "byteOffset" : 33924
        },
        {
            "buffer" : 0,
            "byteLength" : 640,
            "byteOffset" : 34884
        },
        {
            "buffer" : 0,
            "byteLength" : 960,
            "byteOffset" : 35524
        },
        {
            "buffer" : 0,
            "byteLength" : 960,
            "byteOffset" : 36484
        },
        {
            "buffer" : 0,
            "byteLength" : 640,
            "byteOffset" : 37444
        },
        {
            "buffer" : 0,
            "byteLength" : 960,
            "byteOffset" : 38084
        },
        {
            "buffer" : 0,
            "byteLength" : 960,
            "byteOffset" : 39044
        },
        {
            "buffer" : 0,
            "byteLength" : 640,
            "byteOffset" : 40004
        },
        {
            "buffer" : 0,
            "byteLength" : 2232,
            "byteOffset" : 40644
        },
        {
            "buffer" : 0,
            "byteLength" : 2232,
            "byteOffset" : 42876
        },
        {
            "buffer" : 0,
            "byteLength" : 1488,
            "byteOffset" : 45108
        },
        {
            "buffer" : 0,
            "byteLength" : 1620,
            "byteOffset" : 46596
        }
    ],
    "buffers" : [
        {
            "byteLength" : 48216,
            "uri" : "untitled.bin"
        }
    ]
}
