{
  "accessors": [
    {
      "bufferView": 2,
      "componentType": 5126,
      "count": 8967,
      "max": [
        15.096424102783203,
        12.658556938171387,
        248.80943298339844
      ],
      "min": [
        -15.096424102783203,
        -12.629344940185547,
        -5.6643524169921875
      ],
      "type": "VEC3"
    },
    {
      "bufferView": 2,
      "byteOffset": 107604,
      "componentType": 5126,
      "count": 8967,
      "max": [
        1,
        1,
        1
      ],
      "min": [
        -1,
        -1,
        -1
      ],
      "type": "VEC3"
    },
    {
      "bufferView": 3,
      "componentType": 5126,
      "count": 8967,
      "max": [
        1,
        1,
        1,
        1
      ],
      "min": [
        -1,
        -1,
        -0.9992637038230896,
        -1
      ],
      "type": "VEC4"
    },
    {
      "bufferView": 1,
      "componentType": 5126,
      "count": 8967,
      "max": [
        0.99673771858215332,
        0.99799996614456177
      ],
      "min": [
        0.0020000000949949026,
        0.0020000000949949026
      ],
      "type": "VEC2"
    },
    {
      "bufferView": 0,
      "componentType": 5125,
      "count": 32556,
      "max": [
        8966
      ],
      "min": [
        0
      ],
      "type": "SCALAR"
    },
    {
      "bufferView": 2,
      "byteOffset": 215208,
      "componentType": 5126,
      "count": 112,
      "max": [
        8.1589231491088867,
        13.209685325622559,
        13.209685325622559
      ],
      "min": [
        -2.0452814102172852,
        -13.686712265014648,
        -13.209685325622559
      ],
      "type": "VEC3"
    },
    {
      "bufferView": 2,
      "byteOffset": 216552,
      "componentType": 5126,
      "count": 112,
      "max": [
        0.16650295257568359,
        0.89700496196746826,
        1
      ],
      "min": [
        -0.28995499014854431,
        -1,
        -0.98478168249130249
      ],
      "type": "VEC3"
    },
    {
      "bufferView": 3,
      "byteOffset": 143472,
      "componentType": 5126,
      "count": 112,
      "max": [
        1,
        0.1612841784954071,
        0.044373590499162674,
        1
      ],
      "min": [
        0.94772762060165405,
        -0.28713348507881165,
        -0.24401199817657471,
        1
      ],
      "type": "VEC4"
    },
    {
      "bufferView": 1,
      "byteOffset": 71736,
      "componentType": 5126,
      "count": 112,
      "max": [
        1,
        1
      ],
      "min": [
        0.37999999523162842,
        0
      ],
      "type": "VEC2"
    },
    {
      "bufferView": 1,
      "byteOffset": 72632,
      "componentType": 5126,
      "count": 112,
      "max": [
        1,
        1
      ],
      "min": [
        0.37999999523162842,
        0
      ],
      "type": "VEC2"
    },
    {
      "bufferView": 0,
      "byteOffset": 130224,
      "componentType": 5125,
      "count": 168,
      "max": [
        111
      ],
      "min": [
        0
      ],
      "type": "SCALAR"
    }
  ],
  "asset": {
    "extras": {
      "author": "Neel3Dartist (https://sketchfab.com/Neel91)",
      "license": "CC-BY-4.0 (http://creativecommons.org/licenses/by/4.0/)",
      "source": "https://sketchfab.com/3d-models/pslv-c40-c7066310704040a9bf0c86d7d21ab94f",
      "title": "PSLV C40"
    },
    "generator": "Sketchfab-5.57.0",
    "version": "2.0"
  },
  "bufferViews": [
    {
      "buffer": 0,
      "byteLength": 130896,
      "byteOffset": 0,
      "name": "floatBufferViews",
      "target": 34963
    },
    {
      "buffer": 0,
      "byteLength": 73528,
      "byteOffset": 130896,
      "byteStride": 8,
      "name": "floatBufferViews",
      "target": 34962
    },
    {
      "buffer": 0,
      "byteLength": 217896,
      "byteOffset": 204424,
      "byteStride": 12,
      "name": "floatBufferViews",
      "target": 34962
    },
    {
      "buffer": 0,
      "byteLength": 145264,
      "byteOffset": 422320,
      "byteStride": 16,
      "name": "floatBufferViews",
      "target": 34962
    }
  ],
  "buffers": [
    {
      "byteLength": 567584,
      "uri": "scene.bin"
    }
  ],
  "images": [
    {
      "uri": "textures/PSLV-C40_baseColor.png"
    },
    {
      "uri": "textures/PSLV-C40_metallicRoughness.png"
    },
    {
      "uri": "textures/PSLV-C40_normal.png"
    },
    {
      "uri": "textures/material_baseColor.png"
    }
  ],
  "materials": [
    {
      "doubleSided": true,
      "emissiveFactor": [
        0,
        0,
        0
      ],
      "name": "PSLV-C40",
      "normalTexture": {
        "index": 2,
        "scale": 1,
        "texCoord": 0
      },
      "pbrMetallicRoughness": {
        "baseColorFactor": [
          1,
          1,
          1,
          1
        ],
        "baseColorTexture": {
          "index": 0,
          "texCoord": 0
        },
        "metallicFactor": 0,
        "metallicRoughnessTexture": {
          "index": 1,
          "texCoord": 0
        },
        "roughnessFactor": 1
      }
    },
    {
      "alphaMode": "BLEND",
      "doubleSided": true,
      "emissiveFactor": [
        0,
        0,
        0
      ],
      "name": "material",
      "normalTexture": {
        "index": 2,
        "scale": 1,
        "texCoord": 0
      },
      "pbrMetallicRoughness": {
        "baseColorFactor": [
          1,
          1,
          1,
          1
        ],
        "baseColorTexture": {
          "index": 3,
          "texCoord": 0
        },
        "metallicFactor": 0,
        "metallicRoughnessTexture": {
          "index": 1,
          "texCoord": 0
        },
        "roughnessFactor": 1
      }
    }
  ],
  "meshes": [
    {
      "name": "main Pslv_PSLV-C40_0",
      "primitives": [
        {
          "attributes": {
            "NORMAL": 1,
            "POSITION": 0,
            "TANGENT": 2,
            "TEXCOORD_0": 3
          },
          "indices": 4,
          "material": 0,
          "mode": 4
        }
      ]
    },
    {
      "name": "Plane001_f1_0",
      "primitives": [
        {
          "attributes": {
            "NORMAL": 6,
            "POSITION": 5,
            "TANGENT": 7,
            "TEXCOORD_0": 8,
            "TEXCOORD_1": 9
          },
          "indices": 10,
          "material": 1,
          "mode": 4
        }
      ]
    }
  ],
  "nodes": [
    {
      "children": [
        1
      ],
      "name": "RootNode (gltf orientation matrix)",
      "rotation": [
        -0.70710678118654746,
        -0,
        -0,
        0.70710678118654757
      ]
    },
    {
      "children": [
        2
      ],
      "name": "RootNode (model correction matrix)"
    },
    {
      "children": [
        3
      ],
      "matrix": [
        1,
        0,
        0,
        0,
        0,
        0,
        1,
        0,
        0,
        -1,
        0,
        0,
        0,
        0,
        0,
        1
      ],
      "name": "PSLV C40.FBX"
    },
    {
      "children": [
        4,
        6
      ],
      "name": "RootNode"
    },
    {
      "children": [
        5
      ],
      "matrix": [
        1,
        0,
        0,
        0,
        0,
        2.2204460492503131e-16,
        -1,
        0,
        0,
        1,
        2.2204460492503131e-16,
        0,
        2.384185791015625e-07,
        49.320472717285156,
        -3.7618663100147387e-06,
        1
      ],
      "name": "main Pslv"
    },
    {
      "mesh": 0,
      "name": "main Pslv_PSLV-C40_0"
    },
    {
      "children": [
        7
      ],
      "matrix": [
        4.7590953061412061e-07,
        -6.3036127090453915,
        -3.859850566300358e-16,
        0,
        1.8610749244689295,
        1.4050725109916782e-07,
        4.6960067836795963e-07,
        0,
        -4.6960067836795836e-07,
        -3.5567823647986845e-14,
        1.8610749244689349,
        0,
        0.359619140625,
        34.0679931640625,
        1.3557316833612276e-06,
        1
      ],
      "name": "Plane001"
    },
    {
      "mesh": 1,
      "name": "Plane001_f1_0"
    }
  ],
  "samplers": [
    {
      "magFilter": 9729,
      "minFilter": 9987,
      "wrapS": 10497,
      "wrapT": 10497
    }
  ],
  "scene": 0,
  "scenes": [
    {
      "name": "OSG_Scene",
      "nodes": [
        0
      ]
    }
  ],
  "textures": [
    {
      "sampler": 0,
      "source": 0
    },
    {
      "sampler": 0,
      "source": 1
    },
    {
      "sampler": 0,
      "source": 2
    },
    {
      "sampler": 0,
      "source": 3
    }
  ]
}

